<?xml version="1.0" encoding="utf-8"?>
<!-- Generator: Adobe Illustrator 21.0.2, SVG Export Plug-In . SVG Version: 6.00 Build 0)  -->
<svg version="1.1" id="Laag_1" xmlns="http://www.w3.org/2000/svg" xmlns:xlink="http://www.w3.org/1999/xlink" x="0px" y="0px"
	 viewBox="0 0 1133.9 1133.9" style="enable-background:new 0 0 1133.9 1133.9;" xml:space="preserve">
<style type="text/css">
	.st0{fill:#CCCBCA;}
	.st1{fill:#C9C8C8;}
	.st2{fill:#C1BFBF;}
	.st3{fill:#BFBEBD;}
	.st4{fill:#ABA9A9;}
	.st5{fill:#DCDBDA;}
	.st6{fill:#A5A2A1;}
	.st7{fill:#C0BFBF;}
	.st8{fill:#B5B4B4;}
	.st9{fill:#BBBABA;}
	.st10{fill:#BCB7B5;}
	.st11{fill:#ADABAB;}
	.st12{fill:#D7D6D5;}
	.st13{fill:#C7C2BE;}
	.st14{fill:#8D847D;}
	.st15{fill:#D9D7D6;}
	.st16{fill:#B7B0AA;}
	.st17{fill:#D0CCCB;}
	.st18{fill:#AFA7A2;}
	.st19{fill:#020202;}
	.st20{fill:#B0AEAC;}
	.st21{fill:#DCDCDC;}
	.st22{fill:#8E8A89;}
	.st23{fill:#9F9B99;}
	.st24{fill:#9E958E;}
	.st25{fill:#A3A1A1;}
	.st26{fill:#9D938A;}
	.st27{fill:#C4C0BE;}
	.st28{fill:#9E9896;}
	.st29{fill:#D8D5D3;}
	.st30{fill:#ED8D23;}
	.st31{fill:#CDCDCF;}
	.st32{fill:#D87328;}
	.st33{fill:#FFFFFF;}
	.st34{fill:#D77329;}
	.st35{fill:#FEFEFE;}
	.st36{fill:#EC8D24;}
	.st37{fill:#EC8D23;}
	.st38{fill:#D77229;}
	.st39{fill:#D67329;}
	.st40{fill:#CCCCCE;}
	.st41{fill:#D4732A;}
	.st42{fill:#D57329;}
	.st43{fill:#CACACB;}
	.st44{fill:#78706D;}
	.st45{fill:#D1D0D0;}
	.st46{fill:#4F2910;}
	.st47{fill:#592B12;}
	.st48{fill:#E8E8E8;}
	.st49{fill:#EAE8E8;}
	.st50{fill:#9B9797;}
	.st51{fill:#ED8C24;}
	.st52{fill:#010101;}
</style>
<g>
	<path class="st0" d="M323.4,913.4c-18.8-14.9-32.4-34.4-47.3-52.8c-9.2-11.4-19.3-20.7-34.2-25.7c-13.9-4.6-21.3-17.9-26.8-31.4
		c-13.5-32.9-19-68.1-28.1-102.2c-3.4-12.6-6.9-22.8-18.5-30.7c-13.2-9-16.8-33.2-9.2-50c9.8-21.6,20.1-43,31-64
		c5.7-11,13.2-21.1,19.8-31.6c0.9-0.8,1.8-0.7,2.6,0.1c-0.7,11-6.5,20-11.8,29c-3.9,6.7-4.9,12.5-1.7,19.3
		c-2.1,13.5-12.1,23.4-16,36.1c-1.4,4.6-3.8,9.1-6.5,13.1c-8.6,12.6-2.9,24,2.2,35.6c1.2,2.8,3.7,4.4,6.6,4.5
		c8.8,0.4,11.7,6.4,13.6,13.5c4.5,16.9,8.6,33.9,13.2,50.8c4.7,17.6,10.1,35,13.7,52.8c2.9,14.1,11,24.7,19.8,35.2
		c2.4,2.9,5.3,4.6,9.1,4c8-1.4,12.9,2.7,17.7,8.6c36.6,44.6,74.8,87.8,116.5,127.7c15.9,15.2,33.1,29,49.4,43.8
		c1.3,1.2,2.5,2.4,3.5,3.9c0.1,0.3,0.5,0.7,0.4,0.9c-6,15.8,6.1,19.3,16.3,24.6c8,4.2,17.6,6.9,20.6,17.1c-1.5,1.2-3.4,1.7-4.9,0.8
		c-15-9.2-32.5-14.5-43.8-29.3c-8.5-11.2-21.5-17.3-31.2-27.4c-16.2-17-34.5-32-50.9-49C339.7,931.8,332.6,921.6,323.4,913.4z"/>
	<path class="st1" d="M925.8,802.1c-5.8,12.9-12.9,24.9-27.2,29.6c-12.1,3.9-20.9,11.2-28.8,21.1c-20.7,25.7-41.3,51.8-63.9,75.9
		c-19.9,21.3-42.3,40.3-64,59.8c-12.4,11.2-25.6,21.4-38.4,32.1c-7.4-5.5-4.2-10.8,0.9-15.3c5.5-4.8,11.4-9.1,13.7-16.6
		c4.6-8.2,12.7-12.9,19.3-18.9c40.9-36.7,78-76.9,113.2-119c7.2-8.6,14.4-17.1,21.4-25.8c3.6-4.4,7.9-7,13.6-5.9
		c5.6,1,9.1-1.3,12.4-5.6c6.8-8.8,14.7-16.9,17.1-28.4c0.4-2,1.4-4,3.8-4.5c1.6,0.2,2.7,1.1,3.6,2.3c1.9,3.6,1.3,7.4,0.6,11.2
		C922.7,797.2,922.2,800.3,925.8,802.1z"/>
	<path class="st2" d="M732.7,127.9c0.7-0.7,1.4-1.3,2.2-2c18.3-13.2,36.3-26.7,53.8-40.9c6.8-5.5,15.3-7.9,22.9-11.8
		c9.4-4.8,17.9-10.5,26.3-16.5c8.2-2.8,15.9-7.1,24.6-8.7c7.9-1.4,12.1,2,13,9.5c0.5,3.9,1,7.6,3,11c11.8,21,18.7,44.6,24.6,67.1
		c9.7,37,17.6,75.2,16.7,114.2c-4.6,1.6-3.3,5.6-3.4,8.8c-0.2,8,0.1,15.9-0.1,23.9c-0.1,4.1,0.1,8.3-4,11.9
		c-6.5-7-2.1-15.7-4.9-22.8c-2-31.7-4.8-63.3-11.5-94.5c-7.6-35.3-18.3-69.6-34.1-102.2c-5.1-10.6-6.3-10.8-16.6-5
		c-27.2,15.1-54.3,30.3-79.9,48.1c-2.9,2-5.8,3.9-9.3,4.7c-5.1-0.1-9.1,2.5-13.1,5.5c-3.4,2.5-6.7,6.5-11.9,4.6
		C729.2,130.3,731.4,129.3,732.7,127.9z"/>
	<path class="st3" d="M925.8,802.1c-6.4,2.6-6.6-2-5.8-5.8c1-4.4,2-8.7,1.7-13.2c-2.8-9.1,1.9-17,4.6-25
		c6.4-19.5,10.4-39.6,14.8-59.6c0.7-3.1,0.7-6.2,0.1-9.3c-0.5-6.4,1.6-12.4,3.8-18.3c1.4-3.8,3.8-6.3,7.9-7.6
		c13.1-4.3,21.1-21.5,15.5-34.4c-5.7-13.1-11.5-26.3-18.3-38.8c-12.7-23.3-23.9-47.3-37.7-70c-2.9-4.7-5.7-9.6-6.5-15.3
		c0.6-4.7-0.9-9.1-1.9-13.6c-1.2-5-6-7.7-7.8-12.3c-2.2-5.6-3.9-11.3,0.3-16.8c14.8,30.6,30.3,60.8,47.3,90.3
		c9.2,16,18.3,32.1,27.3,48.2c5.2,9.4,7.2,20.3,13.6,29.2c2.8,3.9,3.7,9.6,1.6,13.1c-5.8,9.6-5.1,23-18.2,28.6
		c-8,3.4-10.3,12.7-11.7,20.3c-3.4,18.2-12.6,34.6-15.9,52.8C937.1,764.1,931.9,783.2,925.8,802.1z"/>
	<path class="st4" d="M226.7,365.4c-7.1-41.9-8.3-84-4.5-126.3c1.1-12.5-0.2-25.1,2.4-37.6c1.5-7.2,2.8-14.4,6.3-20.9
		c1.2-0.7,2.2-0.5,2.9,0.7c1.4,4.2-0.3,8.2-1.1,12.2c-2.2,11.4-5.5,22.5,0,34.4c3.5,7.6-0.2,17.2,2.7,25.7
		c1.4,10.8,1.1,21.6,0.7,32.4c-1.1,28,3.2,55.6,5.2,83.3c-0.8,3.4-1.9,6.9-6,7.3c-4.5,0.4-5-3.8-6.7-6.6
		C227.9,368.5,228,366.6,226.7,365.4z"/>
	<path class="st5" d="M323.4,913.4c2.7,0,4.7,1.3,6.3,3.3c28.9,34.4,62.8,63.4,96.1,93.4c16.4,14.8,34.1,25.6,53,35.6
		c9.8,2.4,16.8,9.6,24.5,15.1c16.1,11.3,34.3,17.8,52.1,25.4c5.4,2.3,11.1,3.9,15.7,7.7c-1.6,3.5-3.9,3.8-7.6,2.7
		c-23.9-6.8-46.3-16.4-66.6-31.3c-15.1-11.1-31.9-19.7-48-29.4c-7.5-4.5-14.7-9.1-19.5-17c-1.9-3.2-4.9-6.2-8.1-8.1
		c-14.7-8.4-24.7-21.8-37-32.9c-15.7-14.2-30.3-29.3-45.5-43.9C332.4,928.1,329.2,919.8,323.4,913.4z"/>
	<path class="st6" d="M730.7,132.3c5.5-1.1,9.3-5.2,13.7-8.2c2.7-1.8,5.3-6,9.4-2.2c-0.1,5.5-4.9,7.3-8.4,9.7
		c-24.4,17.5-46.9,37.3-68.9,57.7c-10.2,9.4-18.8,20.6-27.7,31.3c-6,7.2-12.6,13.2-23.1,11.3c-5.7-3.9-11.2-1.8-16.7,0.6
		c-11.7,5.1-23.5,10.3-36.6,10.9c-4.1-0.1-8.1-0.4-7.5-6.2c9.4,1,17.7-1.8,26-5.8c11.3-5.5,23.9-7.2,35.9-10.5
		c19.2-5.3,28.3-22.7,40.8-36.1C684.7,162.5,706.4,145.8,730.7,132.3z"/>
	<path class="st7" d="M571.1,1094c-9.1,0.3-16-5.7-24.1-8.5c-25.4-8.7-47.9-22.4-68.3-39.8c-6.8-8.1-16.2-12.4-25.4-16.9
		c-16.3-8.1-16.2-8.1-12.4-24.6c5.4-1.9,8.3,2.7,11.6,5.2c7,5.2,14.6,9.7,20.3,16.5c15.7,21.5,37.5,34,60.8,46
		c17.4,8.9,35,7.8,52.6,10.5c4.9,0.7,9.2-3.4,14.3-2.4c1.1,0.3,1.9,0.9,2.5,1.9C593.5,1088.9,581.7,1089.8,571.1,1094z"/>
	<path class="st3" d="M919.4,306.6c3.5,36-4.8,70.4-14.6,104.6c-3.1,11-1.7,22.9-6.1,33.7c-0.6,1.5-1.5,3-2.2,4.5
		c-3-3.8-6.7-7-8.4-11.7c-0.9-5,0.3-9.8,1.6-14.5c7.1-26.8,10.8-54.2,14.2-81.6c0.3-2.4,0.5-4.9,1.6-7.1c10.3-2.1,9.5-9.8,9.2-17.7
		C914.8,313,913.8,308.1,919.4,306.6z"/>
	<path class="st8" d="M720.2,989c-1.2,7.9-6.5,12.8-12.8,16.8c-6.2,3.9-7.8,8.5-4,14.8c-10.2,10.7-22.9,17.9-35.2,25.7
		c-14.7,9.3-29.8,17.8-44.7,26.7c-1.3,1.2-2.7,1.1-4.2,0.5c-1.1-3.2,1.4-4.5,3.4-5.6c9.9-5.6,18.1-12.8,24.3-22.4
		c2.9-4.5,8.1-6.5,12.4-9.4c3.8-2.5,6.6-6.2,9.1-10c14.6-12.9,30.8-23.6,46-35.8C716.1,989.1,718,987.9,720.2,989z"/>
	<path class="st9" d="M226.7,365.4c1.5,2.2,3.1,4.2,4.3,6.5c2.9,5.4,5.4,3.1,8-0.2c1.9,1.1,3,3,3.3,5.1c4.9,27.2,12.2,54,18,81
		c-2.5,8.9-9.9,5.1-15.5,5.8c-0.2-2-0.6-4.1,0.7-5.9c2.9-16.1-6.3-29.6-9.7-44.3C232.2,397.4,229.1,381.5,226.7,365.4z"/>
	<path class="st10" d="M233,180.5c-0.7,0-1.4,0.1-2.1,0.1c2.3-17.6,3.7-35.3,8.4-52.5c5.2-12.7,9.9-25.8,17.4-37.4
		c5.6-8.6,8.2-18.2,11.4-27.7c6.7-7.8,8.2-7.8,15.7-0.9c0.8,2.3-0.1,4.1-1.8,5.6c-10.8,1.2-8.2,8.7-7.2,15.4
		c-2.6,12.3-7.8,23.7-13.9,34.6c-6.1,0.4-9.1,4.3-11.2,9.4c-5.4,13.3-9.7,26.9-11.8,41.1C237.3,172.7,237,177.4,233,180.5z"/>
	<path class="st11" d="M919.4,306.6c-4.2,8.8-0.4,18.2-2.4,27.3c-3.1,1.7-6.4-2.9-9.5,0c-1.9-1.4-2.7-3.4-2.5-5.5
		c1.5-16.4,0.5-32.8,1.2-49.2c0.1-3.1,0.6-6.3,3.4-8.4c4.2,6.5-0.3,14.3,4.4,21c0-15.7,0-31.5,0-49.7c3.1,4.1,4.4,5.9,5.8,7.8
		c0.1,0.7,0.1,1.3,0.1,2c1.5,14.1,1.5,28.2,0,42.2C919.7,298.3,919.6,302.4,919.4,306.6z"/>
	<path class="st12" d="M268.9,63c-0.7,12.9-6.4,23.6-13.8,33.9c-6.8,9.5-8.4,21.8-15.8,31.1c0.1-11.7,7.6-20.8,11.6-31.1
		c5.2-13.2,12.9-25.4,16.6-39.4c2-7.4,11.7-10.6,21.3-6.3c18.4,8.2,36.5,17.4,53.4,28.5c-0.4,0.4-0.8,0.7-1.2,1.1
		c-1,0.4-2,0.6-3.1,0.7c-7.5-1-14.1-5.8-21.9-6c-1,0-2.4-0.4-2.8-1.2c-7-15.2-24.3-8.4-34.9-16.5C274.1,54.5,271.2,59.5,268.9,63z"
		/>
	<path class="st13" d="M443.1,157.4c3.1,0.1,5,2.1,7,4c14.2,13.3,29.9,25.1,41.5,41.2c7.2,10.1,17.3,16.5,29.3,19.8
		c-8.7,5.9-15.9,1.5-22.8-3.7c-7-5.2-12.1-12.7-19.5-17.5c-10.8-10.7-22.5-20.6-33.6-31c-3-2.8-6.5-5.4-7.4-9.8
		C438.2,157.2,439.6,155.4,443.1,157.4z"/>
	<path class="st12" d="M443.1,157.4c-2.6,0.1-4.1,1.4-4.3,4.1c-4.7,1.3-6.2-2.3-8.2-5.2c-3.3-7.8-8.2-13.6-17.4-14
		c-1.4-0.6-2.5-1.6-3.3-2.8c-2.9-11.2-13.2-15.1-21.4-20.2c-12.4-7.7-24.1-16.4-36-24.7c-1.3-0.7-2.4-1.6-3.4-2.7
		c-2.2-4-8-6-6.9-11.9c0,0,0-0.1,0-0.1c16.8,7.6,30.8,19.6,45.6,30.3c17.1,12.3,33,26.2,49.4,39.3
		C440.1,151.5,442.9,153.5,443.1,157.4z"/>
	<path class="st14" d="M564.9,237.1c1.3,4.2,4.7,4.5,8.3,4.4c3.9-0.8,7.9-2.9,11,1.5c-3,6.6-9.2,7.9-14.9,6.7
		c-19-4-37.4-10.2-55.7-16.8c-2-0.7-3.4-2.3-4.1-4.5c3.5-8,9.9-4.2,15.5-3.9C538.6,227.9,552.2,231.1,564.9,237.1z"/>
	<path class="st15" d="M837.8,56.7c-5,8.2-13.2,12.7-21.3,16.3c-18.1,8-34.4,18.4-48.7,31.9c-9.7,9.2-21.9,14.2-33,21
		c19.1-18.9,39.8-35.6,63.7-48.1C811.7,70.9,824.7,63.7,837.8,56.7z"/>
	<path class="st16" d="M889.9,438.2c3.4,3,8.5,5,6.7,11.1c-3,4.3-2.8,8.5-0.1,12.8c-3.1,12.1,6.1,19.9,10.4,29.3
		c-6.1,0.3-9-6.2-14.5-7c-11.9-11.2-15.5-24.2-7.9-39.3C885.8,442.4,886.1,439,889.9,438.2z"/>
	<path class="st15" d="M730.7,132.3c-1.5,3.5-5,4.9-7.8,6.6c-20.7,12.6-37.7,29.4-55.3,45.7c7.2-16.6,21.2-27.3,35.3-37
		c9.8-6.7,17.5-16.8,29.8-19.8C732,129.4,731.4,130.8,730.7,132.3z"/>
	<path class="st17" d="M245.6,457.6c0.1,2.2,0.1,4.3,0.2,6.5c2.6,3.4,1.2,7.2-0.6,9.8c-6.9,10.2-10.4,22-16.5,32.6
		c-3.3,3.6-5.3,8.1-8.1,12c-2.1,2.9-3.4,7.1-8.4,6.4c-0.7,0-1.5,0-2.2,0c8.7-17.1,17.2-34.4,27.9-50.5
		C241.2,469.3,243,463.3,245.6,457.6z"/>
	<path class="st18" d="M525.1,224.5c-5,1.3-11.4-2.3-14.9,4.2c-4.5,3.1-8,0-10.9-2.5c-7.5-6.6-13.1-14.9-19.8-22.2
		c-1.1-1.2-1.7-3-0.2-4.6c6.6,1.7,9.9,7.5,14.1,11.9c7.7,7.9,15.9,13.3,27.5,11.2C522.3,223.1,523.7,223.8,525.1,224.5z"/>
	<path class="st2" d="M919.8,294.1c0-14.1,0-28.2,0-42.2C923.2,265.9,923.1,280,919.8,294.1z"/>
	<path class="st7" d="M619.3,1072.9c1.4,0,2.8,0.1,4.3,0.1c-6.1,4.8-12.7,8.3-20.6,8.8c0,0-0.5-0.7-0.5-0.7
		C606,1074.1,611.6,1071.2,619.3,1072.9z"/>
	<path class="st19" d="M479.3,199.4c6.9,8.3,13.8,16.5,20.9,24.7c2.6,3,5.9,4.9,10.1,4.6c19.1,8.1,39.5,12.1,59.1,18.8
		c4.7,1.6,9.8-1.8,14.4-4.1c13.4-6.2,26.8-12.5,42.1-12.7c7.9-0.6,14.5-3.5,19.7-10c29.6-37.5,66-67.7,104.6-95.4
		c1.4-1,2.5-2.3,3.8-3.4c30.5-20,61.5-39.2,93.8-56.4c8-4.3,11.6-3.6,15.5,5.1c21.6,46.9,36.3,95.7,42.1,147.1
		c2,17.7,4,35.3,4.3,53.1c-0.9,21,0.8,42.1-2,63.1c-2.5,32.9-8.4,65.2-16.5,97.1c-0.6,2.3-0.7,4.8-1.1,7.2
		c-2.6,7.7-5.4,15.4-7.9,23.1c-0.9,2.7-0.9,5.6,1.6,7.6c5.2,4.3,7.4,10.7,11.5,15.8c6.4,4.9,10.1,11.5,11.9,19.2
		c19.4,36.4,40.1,72.2,57.3,109.8c2.7,6,5.2,12.1,8.2,17.9c4.1,7.9-2.1,13.8-3.9,20.4c-2.1,7.7-4.1,15.9-15.5,13.7
		c-3.7-0.7-5.3,2.7-6.1,5.9c-1.3,5.7-2.6,11.4-3.9,17.1c-1.8,20.8-8.6,40.5-13.7,60.5c-2.7,10.6-5.1,21.5-9.8,31.6
		c-3,15.2-12.8,26.4-22.3,37.8c-2.9,3.4-4.8,5-9.5,2.9c-5.8-2.7-10.3-0.1-14.3,5c-38.3,48.5-79.8,94.1-124.7,136.7
		c-9.3,8.8-19.1,17.2-28.7,25.8c-16.8,12.8-33.5,25.6-50.3,38.3c-9.2,9.9-21.1,15.9-32.4,22.7c-17.3,10.5-35.5,19.3-54.2,27.1
		c-7,2.9-14.5,4-21.4,1c-32.2-14.1-64.7-28-91.3-52c-9.9-7.4-19.8-14.7-29.7-22.1c-26.6-21.8-52.1-44.7-76.3-69.1
		c-34.1-34.5-66.1-70.8-96.2-108.8c-3.3-4.2-7.3-7.4-12.4-4.9c-6.4,3.1-8.5-0.5-12.6-4.4c-22.9-21.6-22.6-52.1-31.1-79
		c-6.6-20.8-11.5-42.1-16.6-63.3c-1.5-6.1-3.6-9.7-10.3-8.8c-5.4,0.7-7.1-2.1-9.7-6.7c-8.9-15.9-7.1-30.2,2-45.5
		c7.6-12.8,13.1-26.8,19.5-40.3c6-20,18.2-36.8,27.7-55c10.5-17.3,20.3-35,31.2-52c1.2-1.9,3.6-3.6,2.1-6.5
		c-6.6-26.8-13.9-53.5-18.3-80.8c-0.4-2.4-0.8-4.8-1.1-7.2c-6.3-39.7-6.1-79.7-6.3-119.7c-1.2-9.6,1.2-19.1,0.3-28.7
		c3.6-26.5,8-52.8,15.6-78.4c3.2-9.4,3.5-19.9,11.2-27.4c4.5-11.7,8.9-23.4,13.4-35.1c0.7-6,2.3-11.6,7.5-15.4
		c0.7-1.4,1.4-2.7,2.1-4.1c0.2-3,2.3-3.5,4.3-2.5c3.7,1.9,7.9,2.4,11.5,4.4c3.8,2.4,7.5,4.9,11.5,7c17.3,8.7,33.8,18.7,50.2,29
		c13.7,9.9,28.3,18.3,41.7,28.6c3.6,2.7,7,5.6,9.4,9.5c0.3,1.2,1,1.9,2.3,1.8c7.9,2.9,14.2,7.8,18.7,14.9c1.5,2.6,3.3,5,6.4,5.9
		C452.7,173.7,466.7,185.8,479.3,199.4z"/>
	<path class="st20" d="M226.9,518.7c-9.8,18.2-19.7,36.3-29.5,54.5c-4.5-5-5.6-10.2-1.3-15.9c7.3-9.8,10.4-21.7,16.2-32.3
		c7.1-4.6,7.7-14.2,14.5-19C231,510.1,225.9,514.4,226.9,518.7z"/>
	<path class="st21" d="M919.6,780.9c5.1-20.7,10.2-41.5,15.4-62.2c2.5-10,5.4-19.9,8.1-29.9c4.4,7.3-0.4,14.1-1.6,21
		c-4.3,25-12.8,49-19.8,73.4C921,782.4,920.3,781.6,919.6,780.9z"/>
	<path class="st22" d="M907,504c-5.2-5.7-8.3-12.6-11.9-19.2c6.6-2.3,7.4,5.4,11.8,6.8C905.6,495.7,911.8,499.8,907,504z"/>
	<path class="st23" d="M235.3,222.7c0.1,9.8-0.4,19.6-2.5,29.3c-0.4-14.3-7-27.8-5.7-42.1c0.9-9.9,3.9-19.6,6-29.3
		c3.2-19.6,6.7-39.3,15.7-57.1c1.3-2.7,1.9-15,11.2-6c-2.8,9-5.6,18.1-8.4,27.1c-7,4.2-6.4,12-7.8,18.4c-2.9,13.1-5,26.4-8.9,39.4
		C232.8,209,234,215.9,235.3,222.7z"/>
	<path class="st24" d="M625.8,230.7c-13.7,5.1-27.7,9.7-42.1,12.7c-3-3.3-7-1.3-10.5-2c13.9-3,27.1-7.6,39.9-13.8
		C616,226.2,623.5,222.4,625.8,230.7z"/>
	<path class="st25" d="M470.6,1026.2c27.8,17.8,55.9,35,86.6,47.5c9.7,4,18.3,4,27.9,0.1c30-12.3,57.4-29.3,84.8-46.4
		c-0.1,3.1-2.1,5.4-4.4,6.7c-17.5,10.4-26.8,30.6-46.2,38.8c-6.1,1.7-11.7,4.5-16.9,8.3c-19.1,6.2-39.5,6-56.8-1.1
		C517,1068.1,487.6,1055.3,470.6,1026.2z"/>
	<path class="st26" d="M226.9,518.7c-5.1-4.2,1.5-8.5-0.2-12.7c4.3-14.9,15.1-26.8,19.1-41.8c1.8-8.4,9.7,0.5,12.7-4.4
		c3.3,2.3,1.7,4.7,0.2,7.2C248.1,484.1,237.5,501.4,226.9,518.7z"/>
	<path class="st27" d="M359.1,102.5c-16.8-9.8-33.5-19.7-50.3-29.5c-3.2-2.7-5.6-6.8-10.7-6c-5.4,0-9-7.1-15.3-4.1
		c-4.7-5.4-9.4-4.2-14,0.1c1.7-7.1,4.8-10.5,12.4-5.8c3.4,2.1,7.9,3.5,11.8,3.4c9-0.3,15.2,1.9,20.5,10.4c3.4,5.5,13.6,1.9,19.6,6.7
		c1.8,1.4,4.5,1.5,6.8,2.3c2.8,4.2,6.1,8,10.6,10.5c0.7,0.7,1.4,1.4,2.1,2.1C355.4,95.4,361.6,96.2,359.1,102.5z"/>
	<path class="st28" d="M280.8,67c-2.5,5.1-5,10.2-7.5,15.4C268.4,69.5,270.4,65.5,280.8,67z"/>
	<path class="st29" d="M350.6,90.3c-6.6-0.4-10-4-10.6-10.5c0.7,0,1.5,0,2.2,0C345,83.3,347.8,86.8,350.6,90.3z"/>
	<path class="st29" d="M359.1,102.5c0-4.7-4.9-6.3-6.4-10.1c13.8,9.2,27.6,18.2,41.2,27.7c7.1,4.9,17,7.6,17.5,18.8
		C394,126.7,376.6,114.6,359.1,102.5z"/>
	<path class="st29" d="M432.5,155.6c-6.2-5-12.5-10-18.7-14.9C424.8,139.7,429.4,146.7,432.5,155.6z"/>
	<path class="st30" d="M209.9,613.1c7.7-35,21.9-67.6,37.4-99.7c10.5-21.7,22.2-42.8,35.2-63.1c14.4-22.3,28.2-44.9,36.7-70.2
		c0.6-6.6,2-12.8,7.8-17.1c23.1-37.7,30.9-79.3,31.7-122.6c-4.5-1.7-5.5,1.8-7.5,3.3c-1.9,1.4-3.6,3.1-6,5.2
		c4.3-30.4-2.7-58.3-12.5-85.7c-9.7-27.3-23-52.8-37-78.4c38.3,19.5,74.3,42.1,107.4,69.4c21.1,21.6,34.2,47.8,41.1,76.7
		c4.9,20.5,0,40.9-5.7,60.9c-8.2,29-19.8,56.6-33.4,83.7c22.4-13.7,42.2-30.2,59.4-49.6c19.5-22.1,36.5-45.9,48.6-73
		c1-2.3,1.5-5.7,5.5-5.2c3.1,0.4,6.3,0.4,9.2,1.4c28.9,9.9,57.7,10,86.6,0c2.9-1,6.1-0.9,9.2-1.3c7.3,4.2,9.1,12.3,12.5,18.9
		c18.4,35.7,43.9,65.4,75.1,90.5c8.2,6.6,16.1,13.4,26.5,19.8c-2.5-7.3-5.4-12.9-8.3-18.6c-11.4-22.9-19.9-47-27.4-71.4
		c-12.3-39.5-2.9-75.2,18.2-109c5.4-8.7,11.5-16.6,18.9-23.7c33-27.2,69.1-49.6,109-71.4c-28.8,53.3-56.7,104.3-51.7,165.9
		c-3.8-3.4-7.4-6.6-12.8-11.5c0.5,45.4,8.1,86.7,30.7,124.4c6.3,4.6,8,11.4,8.7,18.6c6,15.6,11.9,31.2,21.1,45.3
		c34.3,52.6,64.2,107.3,83.1,167.6c2.1,6.6,3.4,13.5,5.1,20.2c-2,3.4-5.5,4-8.9,4.9c-55.7,15.2-107.4,39.3-155.6,70.9
		c-2.3,1.5-4.7,3.1-7.1,4.4c-4.6,2.4-9.3,4.1-13.1-1c-3.5-4.7-5.4-9.9-2.3-15.6c1.3-2.5,3.2-4.6,5.5-6.2c22-15.4,27-38.6,29.3-63.1
		c0.2-1.7-0.1-3.5,0.8-5.1c-0.1-5.6,0.5-11.2-0.4-16.7c-0.9-5.9-2.5-1.2-3.7,0.2c-7.4,21.4-24.5,30-45.2,33.6
		c-3.4,0.6-7.8,1.1-9.1-2.8c-1.2-3.3,2.6-5.3,4.9-7.4c2.1-1.9,4.6-3.5,5.8-6c8.7-18.1,25.4-26.9,41.7-36.3
		c3.9-3.9,10.6-3.6,13.8-8.9c-46.5-20.7-96.2-23.1-131.8,17.2c-5.3-1.3-4.3-5.9-4.3-9.3c-0.2-16.1-0.6-32.1,0.3-47.7
		c-8.7,18.2-16.6,37.4-26.3,55.7c-5.3,10.1-8.1,10.1-18.1,4.2c-11.1-6.6-17.5-15.4-18.2-28.6c-1.2-23.3-5.3-46.3-6.8-68.6
		c-1.3,12.4-3.8,25.8-5.2,39.3c-0.4,4.2-0.8,8.4-2.8,12.2c-3,5.7-6,5.1-8.8-0.3c-3.8-17-5-34.5-7.6-50.9
		c-2.1,25.8-4.8,52.3-8.9,78.6c-1.9,12.4-13.3,17.5-23.2,22.3c-5,2.4-8.3-2.3-10.4-6.5c-4-7.7-7-16-11.4-23.5
		c-3.3-4.9-5-10.5-7.4-15.7c-1.7-6.4-5-12-8.3-18.5c0.6,7.7,0.4,14.7,0.7,21.7c0.3,8.9-0.2,17.7,0.5,26.6c0.3,4.2,0.2,8.3-5.3,9.2
		c-33-38.3-79-39.3-131.7-18c2.8,6,10.1,5.4,14,9.5c6.2,3.9,12.2,8.1,18.7,11.4c8.1,4.1,14.2,9.9,18,18.2c2.4,5.2,6.5,9,10.7,12.7
		c2.3,2,6.1,4,4.8,7.4c-1.4,3.9-5.8,3.3-9.2,2.8c-20.8-3.4-37.8-12-45.1-33.6c-1.3-1.5-3-5.8-3.7-0.1c-0.7,5.5-0.3,11.1-0.4,16.6
		c1,10.4,2.1,20.8,4.8,30.9c3.7,13.5,10.5,25.1,21.1,34.3c2.4,2.1,5.1,3.7,7.2,6.1c5.3,5.7,5.1,12.3-0.2,18.9c-5,6.3-9.9,3.2-14.6,0
		c-40.3-27.6-83.6-49.1-129.9-64.8c-9.9-3.4-20.1-6-30-9.2C216.2,617.2,212.2,616.8,209.9,613.1z"/>
	<path class="st31" d="M575.4,1058.6c-2.9,2.4-5.7,2.4-8.6,0c-11.1-21.4-20.2-43.8-32-64.7c-18.6-32.9-38.3-65.2-69.2-88.5
		c-28.5-21.5-61.2-31.6-96.6-33.4c-10.4-0.5-20.7-4.3-31.1-0.3c-15-16.1-28.5-33.5-41.4-51.2c-3.1-4.2-3.3-6.9,2.7-7.3
		c64.6-5,124.8,5,173.8,52c3,2.9,5.5,5.6,5.9,10.5c1.8,22.8,11.9,33.4,34.7,35.4c7,0.6,11.3,3.4,15.8,8.2
		c23.6,25.1,59.9,25.1,83.5,0c4.5-4.8,8.8-7.6,15.8-8.2c22.7-2,33-12.7,34.7-35.4c0.4-4.9,2.9-7.6,5.9-10.5
		c29.3-28.6,64.8-44.1,104.8-50.5c21.9-3.5,43.9-2.7,65.9-1.9c7.4,0.3,10.4,1.7,4.6,9.4c-12.8,17-25.8,33.8-40.2,49.5
		c-60.2-2.5-114,11-154.9,59.6c-27.8,33.1-47.1,70.8-65.2,109.5C581.5,1046.9,579.6,1053.3,575.4,1058.6z"/>
	<path class="st32" d="M817.1,361.1c-7.3-26.8-13.1-54-12.9-83.4c5.3,6.6,10.6,13.2,16,19.8c1.1-0.7,2.2-1.4,3.3-2.1
		c-17.4-69.6-3.3-133.2,35.6-192.3c46,109.7,42,220.3,8.1,335c-15.6-21.5-27.4-41.9-42.2-60C820.7,373.2,817.6,367.8,817.1,361.1z"
		/>
	<path class="st32" d="M316.8,377.7c-10.8,15.8-21.6,31.6-32.4,47.4c-2.3,3.4-4.7,6.8-7.8,11.5c-8.9-20.6-14-41-17.9-61.7
		c-8.3-43.4-10.5-87.4-8.7-131.5c1.9-46.5,12-91.2,29.6-134.3c0.9-2.1,1.1-5.5,3.8-5.7c3.3-0.2,4,3.4,5.4,5.7
		c33.3,56.7,47,116.8,30.7,181.9c-0.3,1.3,0,2.7,2.1,6.1c5.2-6.7,10.4-13.4,15.6-20.2c0.8,0.7,1.7,1.4,2.5,2.1
		c-0.3,28-8.2,54.7-14.4,81.7C324,367.3,322.6,373.6,316.8,377.7z"/>
	<path class="st33" d="M337.9,871.7c0.9-5.8,5.6-4.6,9.1-4.3c22.9,1.7,45.6,3.1,68,9.6c40.5,11.8,70.5,37,94.4,70.7
		c23.1,32.6,40.7,68.3,56.6,104.8c0.8,1.8,0.6,4.1,0.9,6.1c-19.1-4-35.6-13.7-51.6-24.1c-50.5-32.5-93.7-73.5-135.3-116.4
		C365.4,903.2,350.9,888.1,337.9,871.7z"/>
	<path class="st33" d="M575.4,1058.6c-0.2-8.5,4.8-15.3,8.1-22.4c15.5-33.6,32.6-66.4,55-96.2c29.4-39.1,67.8-62.1,116.3-69
		c11-1.6,22.2-1.1,33.2-3.5c5.5-1.2,12-1.7,16.3,4.1c-52.7,60.7-109,117.6-176.5,162.2C611.7,1044.7,594.9,1054.5,575.4,1058.6z"/>
	<path class="st30" d="M640.6,659.4c-11.3,35.5-22.7,71.1-34.2,107.2c-9.9-6.2-19.1-11.8-28-17.7c-5-3.3-9.4-2.9-14.5,0
		c-9.1,5.2-17.7,11-27.7,18.5c-11.7-36.7-23.1-72.4-34.5-108c-2.3-5.3,2.1-6.7,5.2-8.5c22-12.5,42-27.3,56.6-48.5
		c4.4-6.3,9.2-6.9,14.1-0.4c15.7,21,36.2,36.4,58.7,49.4C639.2,653.1,642.8,654.8,640.6,659.4z"/>
	<path class="st31" d="M728.6,810.5c-24.1,12-46.8,26.1-65.8,45.7c-3-5-1.9-8.8,0.7-13.1c55.6-91.3,134.6-149.5,240-170.6
		c4.1-0.8,8.2-1.2,14-2.1c-5.7,19.3-11.2,37.7-16.7,56.1C835,737.3,776.6,763.2,728.6,810.5z"/>
	<path class="st31" d="M241.4,726.6c-5.5-18.3-10.9-36.5-16.9-56.5c87.7,15.5,161.5,52.6,217.1,121.9c15.5,19.3,32.4,38.1,39.3,63
		c-18.9-16.6-39.3-30.2-61.2-41.5c-47.7-43.2-102.4-72.8-165.9-85.3C249.7,727.3,245.6,726.7,241.4,726.6z"/>
	<path class="st34" d="M209.9,613.1c38.1,9,74.4,23,109.3,40.3c21.5,10.6,42.3,22.7,61.9,36.7c2.8,2,6.8,8.5,11,1.4
		c3.3-5.5,8-11.6-0.3-17.1c-11-7.3-18.7-17.1-24.3-29.1c-6.5-13.8-6.8-28.2-6.2-42.8c2.8,3.6,1.7,8.1,2.8,12.1
		c8.3,31.4,32.9,51.4,66,53.4c3,0.2,6,0,11.7,0C429,679,415.3,685.2,408.8,700c10.4-5.7,21-11,31.2-17.1c6.6-4,9.3-3.8,11.8,4.6
		c12.4,41.8,25.3,83.5,38.6,125c2.5,7.9,1.5,14-4.2,20.4c-14.8-25-31.1-48.4-50.5-69.6c-55.4-60.6-123.8-99.2-202.3-120.9
		c-3.4-0.9-6.8-1.8-10.1-2.6C202.2,634.3,202.2,634.3,209.9,613.1z"/>
	<path class="st34" d="M780.9,602.3c1.5,23.8-2.8,45.9-20.2,63.6c-3.6,3.7-8,6.6-12,10.1c-2.2,1.9-3.4,4.1-2.8,7.3
		c1.8,9.9,6.6,12.6,14.9,6.9c17.8-12.2,36.6-22.9,55.7-33c34-18.1,69.6-31.8,106.7-42c3-0.8,6.1-1.5,9.1-2.2
		c0.2,0.3,0.6,0.5,0.7,0.8c6.3,20.5,6.4,20.6-14,25.8c-85.1,21.7-158.7,62.7-217.3,129c-17.4,19.7-32,41.3-45.6,64.2
		c-5.8-6.3-6.7-12.4-4.2-20.3c13.3-41.9,26.2-83.9,38.8-126c2.2-7.3,4.6-7.6,10.6-4.1c10.4,6.1,21.2,11.6,32.6,16.4
		c-7.2-13.2-20-20.2-33-29.7c8-1.1,14.4-1.5,20.6-2.8c33.7-6.8,52.6-26.6,57.9-60.2C779.6,604.8,780.4,603.6,780.9,602.3z"/>
	<path class="st32" d="M518.6,247.6c-16,35.6-37.8,67.2-65.9,94.2c-15.7,15.1-32.3,29.4-54.4,41.7c3.9-8.7,6.3-14.9,9.3-20.7
		c16-30.7,27.4-62.9,34-97c4.8-24.6-2.1-46.5-12-68.4c-7.1-15.6-18.2-28.7-26.5-43.4c32.3,24.1,60.7,52.3,85.8,83.8
		c4.2,5.3,1.1,9.1-0.6,13.4c-13.4,34.5-34.3,64.6-56.1,94c-1.2,1.7-2.4,3.4-4,5.6c11.3-6,40.4-36.7,49.5-52.6
		c8.5-14.8,16.8-29.8,24.4-45C506.2,245.3,511,243.2,518.6,247.6z"/>
	<path class="st32" d="M739.1,154.1c-9.5,14.1-18.6,28.4-26.6,43.5c-16,30.3-16.2,61.1-6.6,93.1c9.3,31.1,22.7,60.5,37.1,89.8
		c-27-3.2-91-74.7-119.4-132.9c8.4-5.1,12.9-1.8,16.8,6.5c16,34.1,35.7,65.6,64.4,90.7c2.6,2.3,5.1,4.6,9,5.9
		c-6.1-8.6-11.9-17.4-18.4-25.7c-17.8-22.8-30.6-48.3-42.1-74.6c-2.5-5.6-2.5-9.7,1.7-15C679.9,205,707.6,177.6,739.1,154.1z"/>
	<path class="st33" d="M241.4,726.6c2.6-6.3,7.6-2.2,10.6-1.6c52.8,11.1,101.7,31.2,143.9,65.4c8.5,6.9,18.6,12.5,23.9,23
		c-48.5-22.2-99.6-30.1-152.5-28c-7.2,0.3-10.4-1.4-12.1-8.7C251.2,759.9,246.1,743.3,241.4,726.6z"/>
	<path class="st33" d="M728.6,810.5c-3.1-2.6-0.7-4,1.2-5.7c45.3-42.3,99.6-66.4,159.4-79.6c3.9-0.9,8.2-2.3,11.7,1.5
		c-5,18.1-10.1,36.2-14.9,54.3c-1.6,6.3-6.2,4.4-10.1,4.3c-32.3-0.9-64.2,1.3-95.8,8.5C762.4,797.7,745.5,804,728.6,810.5z"/>
	<path class="st35" d="M508,827c10.6-30.1,31.3-51.4,58.3-67.3c3.5-2.1,6.1-2,9.6,0c27,15.9,47.7,37.2,58.3,67.3
		c2,7.3,4,14.6,5.5,22c3.1,14.8-6.2,30.8-20.4,35.7c-4,1.4-8.1,2.6-11.2-1.9c-0.6-3.8,2.1-5.7,4.4-7.8c13-12.4,12-27.5,8-42.9
		c-1.8-6.9-7.6-10.9-14-13.3c-23.5-9-47.3-9.3-70.6,0c-19.1,7.6-23.4,38.9-8.1,54.5c2.9,2.9,7.1,4.7,8.1,9.3
		c-3.1,5.2-7.7,3.8-12,2.5c-15.7-4.9-24.6-20.9-21-37C504.5,841.1,506.2,834,508,827z"/>
	<path class="st34" d="M499.7,535.4c2.1,4.9,4.3,9.8,6.4,14.7c2.3,16.4,6.5,32.3,10.5,47.4c14.6,0,22.7-10.6,33-17.1
		c9.8-6.1,12.4-16.1,9-27.8c-1.5-5.1-3.4-10.1-1.8-15.4c1.9-6,5-10.3,12.2-6c1.5,4.6,3.4,4.7,4.2-0.1c2.3-14.3,4.3-28.7,6.4-43.1
		c0.9-6.2,2.1-12.4,5.2-18.5c1.1,8.7,2.2,17.4,3.2,26.1c2.2,21,4.2,42,6.4,63c0.6,5.4,16.9,20.5,22.5,21.6c4.1,0.8,4.6-2.5,5.7-4.8
		c8.9-18.5,17.7-37.1,26.3-55.7c1.7-3.7,2.5-8,8.1-10.6c-2.8,18.8-1.4,36.9-1.6,55c0,3.7-1.3,7.7,1.6,11.1
		c-2.8,4.5-5.6,9.1-8.5,13.6c-0.6-0.2-1.2-0.5-1.7-0.7c0.8-12.4,1.7-24.7,2.5-37.1c-0.6-0.1-1.2-0.3-1.8-0.4c-4.4,16-8.9,32-13.2,48
		c-3.9,14.4-3.8,14.4-17.5,7.1c-3.1-1.7-6.2-3.3-9.2-5c-30.1-17.2-30.1-17.2-32-51.6c0-0.7,0-1.4-0.1-2.1c-0.5-2.9,0.6-7.1-3.9-7.3
		c-4.8-0.3-4,3.9-4.3,6.9c-0.8,8.3-2,16.7-1.9,25.1c0,6.7-2.3,11-7.7,14.8c-12.1,8.4-24.8,15.7-37.8,22.5c-6.1,3.2-8.2,1.9-9.9-4.8
		c-4.5-17.9-9.7-35.6-15.2-55.4c-2.9,14.6,2.3,26.9,0.4,41.2c-3.8-5.6-6.7-10.1-9.7-14.5c2.9-2.9,3.1-5.9,2.7-10.1
		c-1-9.2-0.6-18.5-0.7-27.7C490.8,533.7,494.8,531.8,499.7,535.4z"/>
	<path class="st36" d="M674.4,688.8c-7.6,29.7-15.2,59.3-22.8,89c-2.6,10-5.3,19.9-8.4,31.3c-9.4-11.8-17.1-22.9-26.9-32.2
		c-2.4-2.3-1.5-5.2-0.5-7.8c3.8-10.1,7.7-20.1,11.6-30.1c8.2-17.1,16.9-34,26.7-50.3C661.8,675.8,666.5,675.9,674.4,688.8z"/>
	<path class="st37" d="M514.5,739.1c-0.3,2.8,2.3,4.1,3.1,6.2c3.2,8.1,6.9,16.1,8.9,24.6c2.5,10.7-9.1,13.6-13.3,20.7
		c-3.6,6.2-8.7,11.5-14.3,18.6c-7.7-29-15.1-56.5-22.1-83.9c-3.1-12.1-7.5-24-8.9-36.5c7.7-12.5,12.8-13,19.6-1
		C497,704.6,507,721.2,514.5,739.1z"/>
	<path class="st38" d="M365.4,585.8c11.8,20,28.8,31.3,52.3,31.3c-14.4-19.2-30.1-37.1-50.3-50.2c11.1,5,22.2,10,33.3,15
		c2.7,1.2,4.6,3.2,5.7,5.9c11,25.1,39.6,28.7,61.1,21.9c3.3-1,6.5-2.2,10.8-3.7c-2.2,14.3-9.7,23.7-22.1,28.5
		C419,649,375.3,635.5,365.4,585.8z"/>
	<path class="st39" d="M774.8,566.9c-0.9,2.5-3.1,3.5-5.2,4.9c-13.8,8.7-27.1,17.7-34.5,33.3c-2,4.3-7.3,7.1-12.6,12
		c25.5,0,42.3-11.4,54.3-31.2c-8,43.6-50.3,66.3-90.9,48.7c-12.1-5.2-19.4-14.3-22.3-28.6c14.2,5.1,27.7,8.7,42.1,5.5
		c10.4-2.3,19.9-6.4,24.8-15.8c5.4-10.5,14-15.9,24.2-20C761.5,572.9,768.1,569.8,774.8,566.9z"/>
	<path class="st40" d="M508,827c0.1,12.3-6.2,24.2-2,37c4.1,12.7,17.3,21.4,29.4,18.3c4.4-2.8,8.9-1,12.9,0.4
		c15.7,5.5,31.1,5,46.7-0.2c4.4-1.5,9.1-3.7,13.9-0.8c10,3.5,23.4-5.1,27.2-17c3.1-9.7,1.5-19.1-0.8-28.5c-0.7-3.1-1.6-6-1.1-9.2
		c7.1,13.2,9.4,27.6,9.8,42.2c0.4,15.2-6.2,22.9-21.2,26.9c-11.6,3.1-23.5,3.9-35.3,1.3c-11.1-2.5-21.8-2.4-32.9,0
		c-11.7,2.6-23.7,1.8-35.3-1.3c-15-4-21.6-11.7-21.2-26.9C498.6,854.7,500.9,840.2,508,827z"/>
	<path class="st39" d="M640.6,659.4c-0.4-2.2-1.4-3.8-3.5-4.9c-24.2-13-45.7-29.3-62.1-51.5c-3.8-5.2-6.4-4.3-9.2,0.2
		c-14.6,22.7-35.7,37.6-58.8,50.4c-2.5,1.4-5,2.6-5.3,5.9c-0.2-0.3-0.6-0.5-0.7-0.8c-6.7-17.4-6.7-17.3,9.7-25.4
		c20.1-10,38.3-23,54.6-38.5c4.6-4.4,7.3-4.4,11.9-0.1c18.9,17.9,39.9,32.8,64.1,42.8c5.1,2.1,6.3,4.5,4.2,9.4
		C643.5,650.9,642.2,655.2,640.6,659.4z"/>
	<path class="st41" d="M514.5,739.1c-11.2-15.6-19.8-32.7-28.7-49.6c-5-9.5-8.8-10.4-15.2-2.2c-0.6,0.8-1.8,1-2.7,1.5
		c-6.8-17-3.3-27.7,12-36.9c2.8-1.7,4.3-1.4,5.4,1.7C495.1,682,506.8,709.9,514.5,739.1z"/>
	<path class="st42" d="M674.4,688.8c-12.1-9-12.4-9.1-20.5,4.8c-8.8,15.1-15.6,31.4-26.5,45.3c10.1-29.6,20.2-59.2,30.3-88.9
		C679.3,662.8,682.1,669.5,674.4,688.8z"/>
	<path class="st43" d="M604.2,911.7c-16.9,20.7-46.9,21-65.8,1.1c10.8-2.4,21.4-6.6,32-6.7C581.2,905.9,591.9,911.1,604.2,911.7z"/>
	<path class="st44" d="M235.3,222.7c-6.7-5.3-5.7-13.1-3.6-19.1c5.9-16.7,7.1-34.4,11.6-51.3c1.1-4.3,1.3-9.5,8.1-7.7
		c-7.1,24.4-11.7,49.3-14.4,74.5C236.9,220.3,235.9,221.5,235.3,222.7z"/>
	<path class="st45" d="M669.7,596.8c7.2,0.9,13.5,3.8,20.7,3.7c15.8-0.2,29.2-9.8,33.6-24.7c0.5-1.7,0.4-3.5,1-5.1
		c0.6-1.8,0.5-4.9,3.3-4.4c3.7,0.6,2.2,3.5,1.7,5.8C723.1,599.9,694.2,611.9,669.7,596.8z"/>
	<path class="st45" d="M473.7,597.1c-26.7,14.4-55.3,2.3-61.6-25.4c-0.5-2-1.5-4.4,1.2-5.3c3-1,3.1,2,3.7,3.7
		c11.4,29.9,22.1,35.2,53.5,26.4C471.1,596.4,471.9,596.7,473.7,597.1z"/>
	<path class="st46" d="M817.1,361.1c2.6,5.7,5.2,11.3,7.8,17c-0.6,0.6-1.3,1.3-1.9,1.9c-2.9-6.2-5.8-12.4-8.7-18.6
		C815.3,361.3,816.2,361.2,817.1,361.1z"/>
	<path class="st47" d="M316.8,377.7c2.8-5.6,5.6-11.2,8.4-16.8c0.6,0.7,1.2,1.4,1.8,2.1c-2.6,5.7-5.2,11.4-7.8,17.1
		C318.4,379.3,317.6,378.5,316.8,377.7z"/>
	<path class="st48" d="M454.6,573.6c2.3,1.3,5.1,2.5,5.6,5.4c0.3,2-1.6,2.8-3.5,2.8c-2.7-0.1-4.6-1.5-4.9-4.3
		C451.6,575.6,452.7,574.3,454.6,573.6z"/>
	<path class="st49" d="M690.5,577.9c-0.6,2.4-2.3,4-5,3.9c-1.8,0-3.7-0.8-3.4-2.9c0.5-2.9,3.1-4.6,5.7-5.1
		C689.4,573.6,690.5,575.7,690.5,577.9z"/>
	<path class="st50" d="M298.1,67c7.2-4.4,8.6,1.4,10.7,6C305.3,71,301.7,69,298.1,67z"/>
	<path class="st32" d="M569,531.2c-9.7,1.2-13.4,6.9-9.2,16.7c4.9,11.4,4,21.3-4.1,30.9c-6,7.2-17.1,8.7-20.7,18.5
		c-8.6-3.5-14.2,5.2-22.1,6.1c-0.8-4.8-1.5-10.3-1.5-13.4c0.1-13.7-11.4-25.8-5.4-39.9c6.5,6.6,8.6,15.6,12.2,23.7
		c3.3,7.3,5.9,8.9,12.8,3.2c8.6-7,16.6-12.1,17.6-25.8c1.9-26.5,6.2-52.9,8-79.5c0.1-0.8,1-1.5,2.8-4.3
		C562.9,490.1,565.9,510.6,569,531.2z"/>
	<path class="st32" d="M499.7,535.4c-4.4-0.7-8.3,1.4-12.5,2.1c-0.6-7.2,1.2-14.5-1.3-21.6c-0.6-1.6-1.1-3.6,0.9-4.5
		c2-0.9,3.5,0.6,3.9,2.3C492.6,521.4,499.2,527.2,499.7,535.4z"/>
	<path class="st51" d="M404.2,706.2c8.2-1,13.3-1.2,18.5-2.3c9-2.1,16.2-0.7,20.7,9.9c7.2,17.2,16.3,33.6,23.9,51
		C446.3,746.2,427.7,725.5,404.2,706.2z"/>
	<path class="st51" d="M738.2,706.7c-24,18.3-42.2,39.6-64.2,57.6c9.7-19.4,19.5-38.8,29.2-58.2c1.6-3.1,4.5-2.6,7.3-2.9
		C719.2,702.6,727.4,705.3,738.2,706.7z"/>
	<path class="st52" d="M608.9,881.8c-2.7,0.7-5.4,1.1-7.9,2.2c-22.1,9.1-43.9,5.7-65.6-1.6c-18.5-11-25.4-35.7-15.3-54.8
		c3.7-7,10.3-10.4,17.3-12.6c21.1-6.9,42.4-7.4,63.9-1.2c12.1,3.5,22.3,9,24,22.9c1.9,15.6,2.1,30.9-12.1,42
		C611.7,879.8,610.3,880.7,608.9,881.8z"/>
</g>
</svg>
